<svg width="17" height="22" viewBox="0 0 17 22" fill="none" xmlns="http://www.w3.org/2000/svg">
<path d="M13.1364 0H0.772727C0.567787 0 0.371241 0.0827803 0.226327 0.23013C0.0814123 0.37748 0 0.57733 0 0.785714V18.0714C0.00122698 19.113 0.408682 20.1115 1.13299 20.848C1.85729 21.5844 2.83931 21.9988 3.86364 22H16.2273C16.4322 22 16.6288 21.9172 16.7737 21.7699C16.9186 21.6225 17 21.4227 17 21.2143V3.92857C16.9988 2.88703 16.5913 1.88851 15.867 1.15203C15.1427 0.41555 14.1607 0.0012476 13.1364 0ZM12.3636 16.5H4.63636C4.43142 16.5 4.23488 16.4172 4.08996 16.2699C3.94505 16.1225 3.86364 15.9227 3.86364 15.7143C3.86364 15.5059 3.94505 15.3061 4.08996 15.1587C4.23488 15.0114 4.43142 14.9286 4.63636 14.9286H12.3636C12.5686 14.9286 12.7651 15.0114 12.91 15.1587C13.055 15.3061 13.1364 15.5059 13.1364 15.7143C13.1364 15.9227 13.055 16.1225 12.91 16.2699C12.7651 16.4172 12.5686 16.5 12.3636 16.5ZM12.3636 11.7857H4.63636C4.43142 11.7857 4.23488 11.7029 4.08996 11.5556C3.94505 11.4082 3.86364 11.2084 3.86364 11C3.86364 10.7916 3.94505 10.5918 4.08996 10.4444C4.23488 10.2971 4.43142 10.2143 4.63636 10.2143H12.3636C12.5686 10.2143 12.7651 10.2971 12.91 10.4444C13.055 10.5918 13.1364 10.7916 13.1364 11C13.1364 11.2084 13.055 11.4082 12.91 11.5556C12.7651 11.7029 12.5686 11.7857 12.3636 11.7857ZM12.3636 7.07143H4.63636C4.43142 7.07143 4.23488 6.98865 4.08996 6.8413C3.94505 6.69395 3.86364 6.4941 3.86364 6.28571C3.86364 6.07733 3.94505 5.87748 4.08996 5.73013C4.23488 5.58278 4.43142 5.5 4.63636 5.5H12.3636C12.5686 5.5 12.7651 5.58278 12.91 5.73013C13.055 5.87748 13.1364 6.07733 13.1364 6.28571C13.1364 6.4941 13.055 6.69395 12.91 6.8413C12.7651 6.98865 12.5686 7.07143 12.3636 7.07143Z" fill="#275BC4"/>
</svg>
