<svg width="24" height="20" viewBox="0 0 24 20" fill="none" xmlns="http://www.w3.org/2000/svg">
<path d="M15.9296 11.3077C15.9296 13.4266 14.2059 15.1503 12.0871 15.1503C9.9682 15.1503 8.24517 13.4266 8.24517 11.3077C8.24517 9.18882 9.9682 7.46514 12.0871 7.46514C14.2059 7.46514 15.9296 9.18948 15.9296 11.3077ZM24.0001 5.85145V16.7653C24.0001 18.2202 22.8204 19.3999 21.3655 19.3999H2.80867C1.35371 19.3999 0.174072 18.2202 0.174072 16.7653V5.85145C0.174072 4.39649 1.35371 3.21685 2.80867 3.21685H6.04923V2.30527C6.04923 1.0321 7.08067 0 8.3545 0H15.8196C17.0935 0 18.1249 1.0321 18.1249 2.30527V3.21619H21.3655C22.8204 3.21685 24.0001 4.39649 24.0001 5.85145ZM17.9056 11.3077C17.9056 8.09942 15.2954 5.48919 12.0871 5.48919C8.87945 5.48919 6.26922 8.09942 6.26922 11.3077C6.26922 14.516 8.87945 17.1262 12.0871 17.1262C15.2954 17.1262 17.9056 14.516 17.9056 11.3077Z" fill="#929292"/>
</svg>
