<svg width="13" height="13" viewBox="0 0 13 13" fill="none" xmlns="http://www.w3.org/2000/svg">
<path d="M11.3333 7.70819C11.3333 7.80765 11.2938 7.90303 11.2235 7.97336C11.1532 8.04368 11.0578 8.08319 10.9583 8.08319H2.70834C2.60889 8.08319 2.5135 8.04368 2.44318 7.97336C2.37285 7.90303 2.33334 7.80765 2.33334 7.70819C2.33334 7.60873 2.37285 7.51335 2.44318 7.44303C2.5135 7.3727 2.60889 7.33319 2.70834 7.33319H10.9583C11.0578 7.33319 11.1532 7.3727 11.2235 7.44303C11.2938 7.51335 11.3333 7.60873 11.3333 7.70819ZM2.70834 5.08319H10.9583C11.0578 5.08319 11.1532 5.04368 11.2235 4.97336C11.2938 4.90303 11.3333 4.80765 11.3333 4.70819C11.3333 4.60873 11.2938 4.51335 11.2235 4.44303C11.1532 4.3727 11.0578 4.33319 10.9583 4.33319H2.70834C2.60889 4.33319 2.5135 4.3727 2.44318 4.44303C2.37285 4.51335 2.33334 4.60873 2.33334 4.70819C2.33334 4.80765 2.37285 4.90303 2.44318 4.97336C2.5135 5.04368 2.60889 5.08319 2.70834 5.08319Z" fill="#AF52DE"/>
</svg>
