<svg width="29" height="28" viewBox="0 0 29 28" fill="none" xmlns="http://www.w3.org/2000/svg">
<path d="M28.0952 23.5648H15.407C14.9068 23.5648 14.5007 23.1588 14.5007 22.6585C14.5007 22.1583 14.5007 5.03291 14.5007 4.53264C14.5007 4.03236 14.9068 3.62634 15.407 3.62634H28.0952C28.5954 3.62634 29.0015 4.03236 29.0015 4.53264V22.6585C29.0015 23.1588 28.5954 23.5648 28.0952 23.5648Z" fill="#ECEFF1"/>
<path d="M19.0322 9.06418H15.407C14.9068 9.06418 14.5007 8.65816 14.5007 8.15788C14.5007 7.65761 14.9068 7.25159 15.407 7.25159H19.0322C19.5325 7.25159 19.9385 7.65761 19.9385 8.15788C19.9385 8.65816 19.5325 9.06418 19.0322 9.06418Z" fill="#388E3C"/>
<path d="M19.0322 12.6893H15.407C14.9068 12.6893 14.5007 12.2833 14.5007 11.783C14.5007 11.2827 14.9068 10.8767 15.407 10.8767H19.0322C19.5325 10.8767 19.9385 11.2827 19.9385 11.783C19.9385 12.2833 19.5325 12.6893 19.0322 12.6893Z" fill="#388E3C"/>
<path d="M19.0322 16.3145H15.407C14.9068 16.3145 14.5007 15.9085 14.5007 15.4082C14.5007 14.908 14.9068 14.502 15.407 14.502H19.0322C19.5325 14.502 19.9385 14.908 19.9385 15.4082C19.9385 15.9085 19.5325 16.3145 19.0322 16.3145Z" fill="#388E3C"/>
<path d="M19.0322 19.9397H15.407C14.9068 19.9397 14.5007 19.5336 14.5007 19.0334C14.5007 18.5331 14.9068 18.1271 15.407 18.1271H19.0322C19.5325 18.1271 19.9385 18.5331 19.9385 19.0334C19.9385 19.5336 19.5325 19.9397 19.0322 19.9397Z" fill="#388E3C"/>
<path d="M24.4699 9.06418H22.6573C22.157 9.06418 21.751 8.65816 21.751 8.15788C21.751 7.65761 22.157 7.25159 22.6573 7.25159H24.4699C24.9701 7.25159 25.3762 7.65761 25.3762 8.15788C25.3762 8.65816 24.9701 9.06418 24.4699 9.06418Z" fill="#388E3C"/>
<path d="M24.4699 12.6893H22.6573C22.157 12.6893 21.751 12.2833 21.751 11.783C21.751 11.2827 22.157 10.8767 22.6573 10.8767H24.4699C24.9701 10.8767 25.3762 11.2827 25.3762 11.783C25.3762 12.2833 24.9701 12.6893 24.4699 12.6893Z" fill="#388E3C"/>
<path d="M24.4699 16.3145H22.6573C22.157 16.3145 21.751 15.9085 21.751 15.4082C21.751 14.908 22.157 14.502 22.6573 14.502H24.4699C24.9701 14.502 25.3762 14.908 25.3762 15.4082C25.3762 15.9085 24.9701 16.3145 24.4699 16.3145Z" fill="#388E3C"/>
<path d="M24.4699 19.9397H22.6573C22.157 19.9397 21.751 19.5336 21.751 19.0334C21.751 18.5331 22.157 18.1271 22.6573 18.1271H24.4699C24.9701 18.1271 25.3762 18.5331 25.3762 19.0334C25.3762 19.5336 24.9701 19.9397 24.4699 19.9397Z" fill="#388E3C"/>
<path d="M15.9852 0.209669C15.7786 0.037473 15.5013 -0.0368431 15.2403 0.0175346L0.739537 2.73642C0.309953 2.81617 0 3.18957 0 3.6264V23.5649C0 23.9999 0.309953 24.3751 0.739537 24.4549L15.2403 27.1738C15.2946 27.1846 15.3508 27.1901 15.407 27.1901C15.6173 27.1901 15.8221 27.1176 15.9852 26.9816C16.1937 26.8094 16.3133 26.552 16.3133 26.2838V0.907516C16.3133 0.63744 16.1937 0.381865 15.9852 0.209669Z" fill="#2E7D32"/>
<path d="M12.4633 16.6244L9.59764 13.3491L12.496 9.62238C12.8041 9.22724 12.7316 8.65809 12.3383 8.34995C11.9449 8.04181 11.3758 8.11431 11.0658 8.50764L8.38139 11.9588L6.11928 9.37406C5.78757 8.99341 5.2148 8.95898 4.8414 9.28887C4.46438 9.61876 4.42632 10.1915 4.75621 10.5667L7.24852 13.4161L4.72177 16.6643C4.41363 17.0594 4.48613 17.6286 4.87947 17.9367C5.04622 18.0654 5.2438 18.1271 5.43774 18.1271C5.70782 18.1271 5.97427 18.0074 6.15372 17.7772L8.46477 14.8046L11.1003 17.8153C11.2797 18.0219 11.5299 18.1271 11.7818 18.1271C11.9939 18.1271 12.206 18.0527 12.3782 17.9023C12.7552 17.5724 12.7932 16.9996 12.4633 16.6244Z" fill="#FAFAFA"/>
</svg>
