<svg width="25" height="24" viewBox="0 0 25 24" fill="none" xmlns="http://www.w3.org/2000/svg">
<path d="M23.2042 14.2382C23.1416 14.0634 23.068 13.8928 22.9839 13.7272L19.0848 4.85662C19.0479 4.77118 18.9951 4.69355 18.9292 4.62787C18.6506 4.34922 18.3198 4.12818 17.9558 3.97737C17.5918 3.82657 17.2016 3.74895 16.8076 3.74895C16.4136 3.74895 16.0234 3.82657 15.6594 3.97737C15.2954 4.12818 14.9646 4.34922 14.686 4.62787C14.5459 4.76818 14.467 4.95829 14.4667 5.15662V7.50037H11.4667V5.15662C11.4668 5.0581 11.4474 4.96053 11.4098 4.86948C11.3721 4.77843 11.3169 4.6957 11.2473 4.62599C10.9687 4.34734 10.638 4.1263 10.2739 3.9755C9.90992 3.82469 9.51976 3.74707 9.12574 3.74707C8.73171 3.74707 8.34155 3.82469 7.97753 3.9755C7.61351 4.1263 7.28276 4.34734 7.00418 4.62599C6.93825 4.69167 6.88544 4.76931 6.84855 4.85474L2.94949 13.7254C2.86538 13.8909 2.7918 14.0615 2.72918 14.2363C2.50839 14.8541 2.42535 15.5126 2.48586 16.1658C2.54637 16.8191 2.74897 17.4511 3.07947 18.0178C3.40997 18.5845 3.86037 19.0721 4.39913 19.4464C4.93788 19.8207 5.55196 20.0727 6.19835 20.1847C6.84474 20.2967 7.5078 20.266 8.14108 20.0948C8.77437 19.9236 9.36256 19.616 9.86446 19.1936C10.3664 18.7711 10.7698 18.244 11.0466 17.6493C11.3234 17.0545 11.4667 16.4064 11.4667 15.7504V9.00037H14.4667V15.7504C14.4663 16.4065 14.6095 17.0547 14.8861 17.6497C15.1627 18.2446 15.566 18.7719 16.0678 19.1945C16.5696 19.6172 17.1578 19.925 17.7911 20.0964C18.4245 20.2678 19.0876 20.2986 19.7341 20.1867C20.3806 20.0748 20.9948 19.8229 21.5336 19.4487C22.0725 19.0744 22.523 18.5868 22.8536 18.0201C23.1842 17.4534 23.3869 16.8212 23.4475 16.1679C23.508 15.5146 23.425 14.856 23.2042 14.2382ZM8.15824 5.60193C8.40829 5.39139 8.72027 5.26829 9.04671 5.25137C9.37316 5.23445 9.6962 5.32462 9.96668 5.50818V12.3997C9.38111 11.8739 8.66765 11.5113 7.89778 11.348C7.12791 11.1848 6.32866 11.2268 5.58011 11.4697L8.15824 5.60193ZM6.96668 18.7504C6.37333 18.7504 5.79331 18.5744 5.29996 18.2448C4.80662 17.9151 4.4221 17.4466 4.19504 16.8984C3.96797 16.3502 3.90856 15.747 4.02432 15.1651C4.14008 14.5832 4.4258 14.0486 4.84535 13.629C5.26491 13.2095 5.79946 12.9238 6.3814 12.808C6.96335 12.6923 7.56655 12.7517 8.11473 12.9787C8.6629 13.2058 9.13144 13.5903 9.46108 14.0837C9.79073 14.577 9.96668 15.157 9.96668 15.7504C9.96668 16.546 9.65061 17.3091 9.088 17.8717C8.52539 18.4343 7.76232 18.7504 6.96668 18.7504ZM15.9667 5.50724C16.2372 5.32369 16.5602 5.23351 16.8866 5.25043C17.2131 5.26735 17.5251 5.39045 17.7751 5.60099L20.3532 11.4679C19.6046 11.225 18.8053 11.1832 18.0354 11.3466C17.2656 11.51 16.5521 11.8728 15.9667 12.3988V5.50724ZM18.9667 18.7504C18.3733 18.7504 17.7933 18.5744 17.3 18.2448C16.8066 17.9151 16.4221 17.4466 16.195 16.8984C15.968 16.3502 15.9086 15.747 16.0243 15.1651C16.1401 14.5832 16.4258 14.0486 16.8454 13.629C17.2649 13.2095 17.7995 12.9238 18.3814 12.808C18.9633 12.6923 19.5665 12.7517 20.1147 12.9787C20.6629 13.2058 21.1314 13.5903 21.4611 14.0837C21.7907 14.577 21.9667 15.157 21.9667 15.7504C21.9667 16.546 21.6506 17.3091 21.088 17.8717C20.5254 18.4343 19.7623 18.7504 18.9667 18.7504Z" fill="#5D5D5D"/>
</svg>
