<svg width="25" height="24" viewBox="0 0 25 24" fill="none" xmlns="http://www.w3.org/2000/svg">
<path d="M21.85 11.25H21.0681C20.8882 9.13073 19.9645 7.14338 18.4606 5.63943C16.9566 4.13549 14.9693 3.21185 12.85 3.03188V2.25C12.85 2.05109 12.771 1.86032 12.6303 1.71967C12.4897 1.57902 12.2989 1.5 12.1 1.5C11.9011 1.5 11.7103 1.57902 11.5697 1.71967C11.429 1.86032 11.35 2.05109 11.35 2.25V3.03188C9.23073 3.21185 7.24338 4.13549 5.73944 5.63943C4.23549 7.14338 3.31186 9.13073 3.13188 11.25H2.35001C2.15109 11.25 1.96033 11.329 1.81968 11.4697C1.67902 11.6103 1.60001 11.8011 1.60001 12C1.60001 12.1989 1.67902 12.3897 1.81968 12.5303C1.96033 12.671 2.15109 12.75 2.35001 12.75H3.13188C3.31186 14.8693 4.23549 16.8566 5.73944 18.3606C7.24338 19.8645 9.23073 20.7882 11.35 20.9681V21.75C11.35 21.9489 11.429 22.1397 11.5697 22.2803C11.7103 22.421 11.9011 22.5 12.1 22.5C12.2989 22.5 12.4897 22.421 12.6303 22.2803C12.771 22.1397 12.85 21.9489 12.85 21.75V20.9681C14.9693 20.7882 16.9566 19.8645 18.4606 18.3606C19.9645 16.8566 20.8882 14.8693 21.0681 12.75H21.85C22.0489 12.75 22.2397 12.671 22.3803 12.5303C22.521 12.3897 22.6 12.1989 22.6 12C22.6 11.8011 22.521 11.6103 22.3803 11.4697C22.2397 11.329 22.0489 11.25 21.85 11.25ZM12.85 19.4625V18.75C12.85 18.5511 12.771 18.3603 12.6303 18.2197C12.4897 18.079 12.2989 18 12.1 18C11.9011 18 11.7103 18.079 11.5697 18.2197C11.429 18.3603 11.35 18.5511 11.35 18.75V19.4625C9.62958 19.287 8.02236 18.5233 6.79951 17.3005C5.57667 16.0777 4.81305 14.4704 4.63751 12.75H5.35001C5.54892 12.75 5.73968 12.671 5.88034 12.5303C6.02099 12.3897 6.10001 12.1989 6.10001 12C6.10001 11.8011 6.02099 11.6103 5.88034 11.4697C5.73968 11.329 5.54892 11.25 5.35001 11.25H4.63751C4.81305 9.52957 5.57667 7.92235 6.79951 6.6995C8.02236 5.47666 9.62958 4.71305 11.35 4.5375V5.25C11.35 5.44891 11.429 5.63968 11.5697 5.78033C11.7103 5.92098 11.9011 6 12.1 6C12.2989 6 12.4897 5.92098 12.6303 5.78033C12.771 5.63968 12.85 5.44891 12.85 5.25V4.5375C14.5704 4.71305 16.1777 5.47666 17.4005 6.6995C18.6233 7.92235 19.387 9.52957 19.5625 11.25H18.85C18.6511 11.25 18.4603 11.329 18.3197 11.4697C18.179 11.6103 18.1 11.8011 18.1 12C18.1 12.1989 18.179 12.3897 18.3197 12.5303C18.4603 12.671 18.6511 12.75 18.85 12.75H19.5625C19.387 14.4704 18.6233 16.0777 17.4005 17.3005C16.1777 18.5233 14.5704 19.287 12.85 19.4625ZM12.1 8.25C11.3583 8.25 10.6333 8.46993 10.0166 8.88199C9.39993 9.29404 8.91929 9.87971 8.63546 10.5649C8.35163 11.2502 8.27737 12.0042 8.42206 12.7316C8.56676 13.459 8.92391 14.1272 9.44836 14.6517C9.9728 15.1761 10.641 15.5333 11.3684 15.6779C12.0958 15.8226 12.8498 15.7484 13.5351 15.4645C14.2203 15.1807 14.806 14.7001 15.218 14.0834C15.6301 13.4667 15.85 12.7417 15.85 12C15.85 11.0054 15.4549 10.0516 14.7517 9.34835C14.0484 8.64509 13.0946 8.25 12.1 8.25ZM12.1 14.25C11.655 14.25 11.22 14.118 10.85 13.8708C10.48 13.6236 10.1916 13.2722 10.0213 12.861C9.85098 12.4499 9.80642 11.9975 9.89324 11.561C9.98006 11.1246 10.1943 10.7237 10.509 10.409C10.8237 10.0943 11.2246 9.88005 11.6611 9.79323C12.0975 9.70642 12.5499 9.75097 12.961 9.92127C13.3722 10.0916 13.7236 10.38 13.9708 10.75C14.218 11.12 14.35 11.555 14.35 12C14.35 12.5967 14.113 13.169 13.691 13.591C13.269 14.0129 12.6967 14.25 12.1 14.25Z" fill="#AF52DE"/>
</svg>
