<svg width="19" height="15" viewBox="0 0 19 15" fill="none" xmlns="http://www.w3.org/2000/svg">
<path fill-rule="evenodd" clip-rule="evenodd" d="M17.9444 15C18.5274 15 19 14.5203 19 13.9286C19 13.3368 18.5274 12.8571 17.9444 12.8571L1.05555 12.8571C0.472569 12.8571 -1.76195e-06 13.3368 -1.81368e-06 13.9286C-1.86541e-06 14.5203 0.472569 15 1.05555 15L17.9444 15ZM12.6667 7.5C12.6667 8.09175 12.1941 8.57143 11.6111 8.57143L1.05555 8.57143C0.472569 8.57143 -1.30341e-06 8.09175 -1.25168e-06 7.5C-1.19995e-06 6.90825 0.472569 6.42857 1.05555 6.42857L11.6111 6.42857C12.1941 6.42857 12.6667 6.90825 12.6667 7.5ZM19 1.07143C19 1.66318 18.5274 2.14286 17.9444 2.14286L1.05555 2.14286C0.47257 2.14286 -7.41407e-07 1.66318 -6.89674e-07 1.07143C-6.37942e-07 0.479679 0.47257 2.87629e-07 1.05555 3.38595e-07L17.9444 1.81507e-06C18.5274 1.86603e-06 19 0.479681 19 1.07143Z" fill="#929292"/>
</svg>
