<svg width="25" height="24" viewBox="0 0 25 24" fill="none" xmlns="http://www.w3.org/2000/svg">
<g clip-path="url(#clip0_390_30)">
<path d="M23.4 19.5H21.9V12.75L22.1194 12.9694C22.2604 13.1101 22.4515 13.1891 22.6507 13.1889C22.8499 13.1887 23.0408 13.1094 23.1816 12.9684C23.3223 12.8275 23.4013 12.6363 23.4011 12.4371C23.4009 12.2379 23.3216 12.047 23.1806 11.9062L13.9603 2.68875C13.679 2.40766 13.2977 2.24976 12.9 2.24976C12.5023 2.24976 12.121 2.40766 11.8397 2.68875L2.61938 11.9062C2.47877 12.047 2.39983 12.2378 2.39992 12.4367C2.4 12.6357 2.47911 12.8264 2.61985 12.967C2.76058 13.1076 2.9514 13.1866 3.15033 13.1865C3.34927 13.1864 3.54002 13.1073 3.68063 12.9666L3.9 12.75V19.5H2.4C2.20109 19.5 2.01032 19.579 1.86967 19.7197C1.72902 19.8603 1.65 20.0511 1.65 20.25C1.65 20.4489 1.72902 20.6397 1.86967 20.7803C2.01032 20.921 2.20109 21 2.4 21H23.4C23.5989 21 23.7897 20.921 23.9303 20.7803C24.071 20.6397 24.15 20.4489 24.15 20.25C24.15 20.0511 24.071 19.8603 23.9303 19.7197C23.7897 19.579 23.5989 19.5 23.4 19.5ZM5.4 11.25L12.9 3.75L20.4 11.25V19.5H15.9V14.25C15.9 14.0511 15.821 13.8603 15.6803 13.7197C15.5397 13.579 15.3489 13.5 15.15 13.5H10.65C10.4511 13.5 10.2603 13.579 10.1197 13.7197C9.97902 13.8603 9.9 14.0511 9.9 14.25V19.5H5.4V11.25ZM14.4 19.5H11.4V15H14.4V19.5Z" fill="#5D5D5D"/>
</g>
<defs>
<clipPath id="clip0_390_30">
<rect width="24" height="24" fill="white" transform="translate(0.900002)"/>
</clipPath>
</defs>
</svg>
