<svg width="12" height="13" viewBox="0 0 12 13" fill="none" xmlns="http://www.w3.org/2000/svg">
<g clip-path="url(#clip0_1_219)">
<path d="M6 5.45819C5.68481 5.4583 5.38019 5.57182 5.1418 5.77802C4.90342 5.98422 4.7472 6.26931 4.70169 6.5812C4.65619 6.89308 4.72444 7.21093 4.89397 7.47664C5.06349 7.74235 5.32298 7.93819 5.625 8.02835V8.83319C5.625 8.93265 5.66451 9.02803 5.73484 9.09836C5.80516 9.16868 5.90054 9.20819 6 9.20819C6.09946 9.20819 6.19484 9.16868 6.26517 9.09836C6.33549 9.02803 6.375 8.93265 6.375 8.83319V8.02835C6.67702 7.93819 6.9365 7.74235 7.10603 7.47664C7.27556 7.21093 7.34381 6.89308 7.29831 6.5812C7.2528 6.26931 7.09658 5.98422 6.8582 5.77802C6.61981 5.57182 6.31519 5.4583 6 5.45819ZM6 7.33319C5.88875 7.33319 5.77999 7.3002 5.68749 7.23839C5.59499 7.17658 5.52289 7.08873 5.48032 6.98595C5.43774 6.88317 5.4266 6.77007 5.44831 6.66095C5.47001 6.55184 5.52359 6.45161 5.60225 6.37294C5.68092 6.29428 5.78115 6.2407 5.89026 6.219C5.99938 6.1973 6.11248 6.20843 6.21526 6.25101C6.31804 6.29358 6.40589 6.36568 6.4677 6.45818C6.52951 6.55069 6.5625 6.65944 6.5625 6.77069C6.5625 6.91988 6.50324 7.06295 6.39775 7.16844C6.29226 7.27393 6.14918 7.33319 6 7.33319ZM9.75 3.95819H8.25V2.83319C8.25 2.23645 8.01295 1.66416 7.59099 1.2422C7.16903 0.820244 6.59674 0.583191 6 0.583191C5.40326 0.583191 4.83097 0.820244 4.40901 1.2422C3.98705 1.66416 3.75 2.23645 3.75 2.83319V3.95819H2.25C2.05109 3.95819 1.86032 4.03721 1.71967 4.17786C1.57902 4.31851 1.5 4.50928 1.5 4.70819V9.95819C1.5 10.1571 1.57902 10.3479 1.71967 10.4885C1.86032 10.6292 2.05109 10.7082 2.25 10.7082H9.75C9.94891 10.7082 10.1397 10.6292 10.2803 10.4885C10.421 10.3479 10.5 10.1571 10.5 9.95819V4.70819C10.5 4.50928 10.421 4.31851 10.2803 4.17786C10.1397 4.03721 9.94891 3.95819 9.75 3.95819ZM4.5 2.83319C4.5 2.43537 4.65804 2.05384 4.93934 1.77253C5.22064 1.49123 5.60218 1.33319 6 1.33319C6.39782 1.33319 6.77936 1.49123 7.06066 1.77253C7.34196 2.05384 7.5 2.43537 7.5 2.83319V3.95819H4.5V2.83319ZM9.75 9.95819H2.25V4.70819H9.75V9.95819Z" fill="#5D5D5D"/>
</g>
<defs>
<clipPath id="clip0_1_219">
<rect width="12" height="12" fill="white" transform="translate(0 0.208191)"/>
</clipPath>
</defs>
</svg>
