<svg width="13" height="17" viewBox="0 0 13 17" fill="none" xmlns="http://www.w3.org/2000/svg">
<path d="M11.1562 6.375H10.625V4.25C10.625 1.90612 8.71887 0 6.375 0C4.03113 0 2.125 1.90612 2.125 4.25V6.375H1.59375C0.715417 6.375 0 7.08971 0 7.96875V15.4062C0 16.2853 0.715417 17 1.59375 17H11.1562C12.0346 17 12.75 16.2853 12.75 15.4062V7.96875C12.75 7.08971 12.0346 6.375 11.1562 6.375ZM3.54167 4.25C3.54167 2.68742 4.81242 1.41667 6.375 1.41667C7.93758 1.41667 9.20833 2.68742 9.20833 4.25V6.375H3.54167V4.25ZM7.08333 11.8447V13.4583C7.08333 13.8493 6.76671 14.1667 6.375 14.1667C5.98329 14.1667 5.66667 13.8493 5.66667 13.4583V11.8447C5.24521 11.599 4.95833 11.147 4.95833 10.625C4.95833 9.84371 5.59371 9.20833 6.375 9.20833C7.15629 9.20833 7.79167 9.84371 7.79167 10.625C7.79167 11.147 7.50479 11.599 7.08333 11.8447Z" fill="#275BC4"/>
</svg>
