<svg width="18" height="20" viewBox="0 0 18 20" fill="none" xmlns="http://www.w3.org/2000/svg">
<path fill-rule="evenodd" clip-rule="evenodd" d="M9 0C9.5523 0 10 0.445981 10 0.996117V10.9573C10 11.5074 9.5523 11.9534 9 11.9534C8.4477 11.9534 8 11.5074 8 10.9573V0.996117C8 0.445981 8.4477 0 9 0ZM5.86561 3.55567C6.14215 4.03187 5.97879 4.64123 5.50073 4.91669C3.40581 6.12384 2 8.37764 2 10.9573C2 14.8083 5.13401 17.9301 9 17.9301C12.866 17.9301 16 14.8083 16 10.9573C16 8.37764 14.5942 6.12384 12.4993 4.91669C12.0212 4.64123 11.8579 4.03187 12.1344 3.55567C12.4109 3.07946 13.0227 2.91674 13.5007 3.1922C16.1882 4.7408 18 7.63769 18 10.9573C18 15.9086 13.9706 19.9223 9 19.9223C4.02944 19.9223 0 15.9086 0 10.9573C0 7.63769 1.81178 4.7408 4.49927 3.1922C4.97733 2.91674 5.58906 3.07946 5.86561 3.55567Z" fill="#275BC4"/>
</svg>
