<svg width="18" height="24" viewBox="0 0 18 24" fill="none" xmlns="http://www.w3.org/2000/svg">
<path d="M11.4663 4.73694H14.9467V23.6244H11.4663V22.0306C10.442 23.3435 8.98549 24 7.09674 24C6.21935 24.0076 5.35053 23.827 4.54882 23.4704C3.74711 23.1139 3.03114 22.5896 2.44916 21.933C1.16312 20.5564 0.520096 18.87 0.520096 16.8737C0.520096 14.8774 1.16312 13.1917 2.44916 11.8165C3.03201 11.1601 3.74883 10.6364 4.5513 10.2805C5.35377 9.92468 6.22321 9.74506 7.10099 9.75378C8.98973 9.75378 10.4463 10.4102 11.4706 11.7232L11.4663 4.73694ZM5.06157 19.6113C5.41255 19.962 5.83162 20.237 6.29296 20.4195C6.7543 20.602 7.24813 20.6881 7.74401 20.6724C8.23831 20.6881 8.73055 20.602 9.19018 20.4195C9.64981 20.237 10.067 19.9619 10.4158 19.6113C11.0923 18.8599 11.4666 17.8847 11.4666 16.8737C11.4666 15.8627 11.0923 14.8875 10.4158 14.1361C10.067 13.7855 9.64981 13.5105 9.19018 13.3279C8.73055 13.1454 8.23831 13.0593 7.74401 13.075C7.24818 13.0597 6.75446 13.146 6.29317 13.3284C5.83189 13.5109 5.41277 13.7858 5.06157 14.1361C4.37616 14.883 3.99588 15.8599 3.99588 16.8737C3.99588 17.8875 4.37616 18.8644 5.06157 19.6113Z" fill="#5D5D5D"/>
<path d="M13.1873 0L8.82619 6.34108H17.5462L13.1873 0Z" fill="#5D5D5D"/>
</svg>
