<svg width="19" height="19" viewBox="0 0 19 19" fill="none" xmlns="http://www.w3.org/2000/svg">
<path d="M9.39828 10.0181C8.65525 10.0181 7.92892 9.79778 7.31111 9.38498C6.69331 8.97218 6.21179 8.38544 5.92745 7.69898C5.64311 7.01251 5.56871 6.25715 5.71367 5.5284C5.85862 4.79965 6.21642 4.13026 6.74182 3.60486C7.26722 3.07946 7.93662 2.72166 8.66536 2.5767C9.39411 2.43175 10.1495 2.50614 10.8359 2.79049C11.5224 3.07483 12.1091 3.55635 12.5219 4.17415C12.9347 4.79195 13.1551 5.51829 13.1551 6.26132C13.1551 7.25768 12.7593 8.21324 12.0547 8.91777C11.3502 9.62231 10.3946 10.0181 9.39828 10.0181ZM9.39828 3.75678C8.90293 3.75678 8.4187 3.90367 8.00684 4.17887C7.59497 4.45407 7.27395 4.84523 7.08439 5.30287C6.89483 5.76052 6.84523 6.26409 6.94187 6.74992C7.03851 7.23576 7.27704 7.68202 7.62731 8.03229C7.97757 8.38255 8.42384 8.62108 8.90967 8.71772C9.3955 8.81436 9.89908 8.76476 10.3567 8.5752C10.8144 8.38564 11.2055 8.06463 11.4807 7.65276C11.7559 7.24089 11.9028 6.75666 11.9028 6.26132C11.9028 5.59707 11.6389 4.96003 11.1692 4.49034C10.6996 4.02065 10.0625 3.75678 9.39828 3.75678Z" fill="#275BC4"/>
<path d="M9.39826 18.784C8.00978 18.783 6.63877 18.4743 5.38394 17.8799C4.12911 17.2855 3.02169 16.4203 2.14138 15.3465L1.8158 14.9458L2.14138 14.5513C3.02243 13.4789 4.13018 12.6152 5.38497 12.0221C6.63976 11.4291 8.01039 11.1215 9.39826 11.1215C10.7861 11.1215 12.1568 11.4291 13.4116 12.0221C14.6663 12.6152 15.7741 13.4789 16.6551 14.5513L16.9807 14.9458L16.6551 15.3465C15.7748 16.4203 14.6674 17.2855 13.4126 17.8799C12.1578 18.4743 10.7867 18.783 9.39826 18.784ZM3.45626 14.952C4.21779 15.7673 5.13877 16.4173 6.16201 16.8617C7.18526 17.3061 8.28894 17.5354 9.40453 17.5354C10.5201 17.5354 11.6238 17.3061 12.647 16.8617C13.6703 16.4173 14.5913 15.7673 15.3528 14.952C14.5913 14.1368 13.6703 13.4868 12.647 13.0424C11.6238 12.598 10.5201 12.3687 9.40453 12.3687C8.28894 12.3687 7.18526 12.598 6.16201 13.0424C5.13877 13.4868 4.21779 14.1368 3.45626 14.952Z" fill="#275BC4"/>
<path d="M9.39826 18.784C7.26487 18.7854 5.19455 18.0605 3.52807 16.7285C1.86159 15.3965 0.698243 13.5368 0.229508 11.4555C-0.239227 9.37428 0.0145806 7.19544 0.949158 5.27765C1.88373 3.35985 3.44339 1.81738 5.37142 0.904102C7.29945 -0.00917552 9.48096 -0.238834 11.5569 0.252925C13.6329 0.744684 15.4795 1.92856 16.793 3.60969C18.1064 5.29083 18.8084 7.36904 18.7833 9.50229C18.7583 11.6355 18.0077 13.6967 16.6551 15.3465C15.7748 16.4203 14.6674 17.2855 13.4126 17.8799C12.1578 18.4743 10.7867 18.7831 9.39826 18.784ZM9.39826 1.25227C7.78838 1.25227 6.21464 1.72966 4.87607 2.62406C3.5375 3.51847 2.49421 4.78972 1.87814 6.27706C1.26206 7.7644 1.10087 9.40103 1.41494 10.98C1.72901 12.5589 2.50425 14.0093 3.64261 15.1477C4.78097 16.286 6.23133 17.0612 7.81028 17.3753C9.38923 17.6894 11.0259 17.5282 12.5132 16.9121C14.0005 16.296 15.2718 15.2528 16.1662 13.9142C17.0606 12.5756 17.538 11.0019 17.538 9.392C17.538 7.23321 16.6804 5.16284 15.1539 3.63634C13.6274 2.10985 11.5571 1.25227 9.39826 1.25227Z" fill="#275BC4"/>
<path d="M2.62347 14.952C2.62347 14.952 8.92863 21.996 15.3465 15.6533L16.173 14.952C16.173 14.952 10.8133 9.39194 5.3722 12.7292L2.62347 14.952Z" fill="#275BC4"/>
<path d="M9.39824 9.392C11.1273 9.392 12.5289 7.99036 12.5289 6.26134C12.5289 4.53232 11.1273 3.13068 9.39824 3.13068C7.66922 3.13068 6.26758 4.53232 6.26758 6.26134C6.26758 7.99036 7.66922 9.392 9.39824 9.392Z" fill="#275BC4"/>
</svg>
