<svg width="22" height="22" viewBox="0 0 22 22" fill="none" xmlns="http://www.w3.org/2000/svg">
<path d="M3.50003 4.05263C3.09329 4.05263 2.76318 3.72253 2.76318 3.31579V0.736842C2.76318 0.330105 3.09329 0 3.50003 0C3.90676 0 4.23687 0.330105 4.23687 0.736842V3.31579C4.23687 3.72253 3.90676 4.05263 3.50003 4.05263Z" fill="#275BC4"/>
<path d="M7.00003 4.05263C6.59329 4.05263 6.26318 3.72253 6.26318 3.31579V0.736842C6.26318 0.330105 6.59329 0 7.00003 0C7.40676 0 7.73687 0.330105 7.73687 0.736842V3.31579C7.73687 3.72253 7.40676 4.05263 7.00003 4.05263Z" fill="#275BC4"/>
<path d="M10.5 4.05263C10.0933 4.05263 9.76318 3.72253 9.76318 3.31579V0.736842C9.76318 0.330105 10.0933 0 10.5 0C10.9068 0 11.2369 0.330105 11.2369 0.736842V3.31579C11.2369 3.72253 10.9068 4.05263 10.5 4.05263Z" fill="#275BC4"/>
<path d="M11.9737 1.65784H2.02632C0.908526 1.65784 0 2.56636 0 3.68415V15.6578C0 16.7756 0.908526 17.6842 2.02632 17.6842H11.9737C13.0915 17.6842 14 16.7756 14 15.6578V3.68415C14 2.56636 13.0915 1.65784 11.9737 1.65784ZM3.68421 5.89468H7.36842C7.77516 5.89468 8.10526 6.22478 8.10526 6.63152C8.10526 7.03826 7.77516 7.36836 7.36842 7.36836H3.68421C3.27747 7.36836 2.94737 7.03826 2.94737 6.63152C2.94737 6.22478 3.27747 5.89468 3.68421 5.89468ZM11.0526 13.2631H3.68421C3.27747 13.2631 2.94737 12.933 2.94737 12.5263C2.94737 12.1195 3.27747 11.7894 3.68421 11.7894H11.0526C11.4594 11.7894 11.7895 12.1195 11.7895 12.5263C11.7895 12.933 11.4594 13.2631 11.0526 13.2631ZM11.0526 10.3157H3.68421C3.27747 10.3157 2.94737 9.98563 2.94737 9.57889C2.94737 9.17215 3.27747 8.84205 3.68421 8.84205H11.0526C11.4594 8.84205 11.7895 9.17215 11.7895 9.57889C11.7895 9.98563 11.4594 10.3157 11.0526 10.3157Z" fill="#275BC4"/>
</svg>
