<svg width="23" height="23" viewBox="0 0 23 23" fill="none" xmlns="http://www.w3.org/2000/svg">
<path d="M20.9757 8.11322H19.631L15.5836 12.1609C15.5323 12.2122 15.473 12.255 15.4086 12.2873L11.4017 14.2907C11.1136 14.4341 10.8043 14.5045 10.4977 14.5045C9.97336 14.5045 9.45685 14.3006 9.06868 13.9117C8.45285 13.2959 8.3002 12.3583 8.68968 11.5793L10.4224 8.11322H2.02121C0.906657 8.11322 0 9.01988 0 10.1344V20.9592C0 22.0737 0.906657 22.9804 2.02121 22.9804H20.9757C22.0902 22.9804 22.9969 22.0737 22.9969 20.9592V10.1344C22.9969 9.01983 22.0902 8.11322 20.9757 8.11322ZM3.36869 13.5031H7.45603C7.82843 13.5031 8.12977 13.8045 8.12977 14.1769C8.12977 14.5493 7.82843 14.8506 7.45603 14.8506H3.36869C2.99628 14.8506 2.69495 14.5493 2.69495 14.1769C2.69495 13.8045 2.99628 13.5031 3.36869 13.5031ZM19.6282 20.2854H3.36869C2.99628 20.2854 2.69495 19.984 2.69495 19.6116C2.69495 19.2392 2.99628 18.9379 3.36869 18.9379H19.6282C20.0006 18.9379 20.3019 19.2392 20.3019 19.6116C20.3019 19.984 20.0006 20.2854 19.6282 20.2854ZM19.6282 17.5904H3.36869C2.99628 17.5904 2.69495 17.2891 2.69495 16.9167C2.69495 16.5443 2.99628 16.2429 3.36869 16.2429H19.6282C20.0006 16.2429 20.3019 16.5443 20.3019 16.9167C20.3019 17.2891 20.0006 17.5904 19.6282 17.5904Z" fill="#275BC4"/>
<path d="M22.4078 0.572433C21.644 -0.191462 20.3109 -0.19016 19.5497 0.572433L19.0731 1.04896L21.9317 3.90729L22.4078 3.43117C22.7895 3.04956 23 2.54163 23 2.00144C23 1.46197 22.7895 0.954044 22.4078 0.572433Z" fill="#275BC4"/>
<path d="M11.5833 8.80402L9.895 12.1812C9.76536 12.4405 9.81603 12.7537 10.0213 12.959C10.151 13.0886 10.3233 13.1564 10.4977 13.1564C10.6003 13.1564 10.7029 13.1333 10.799 13.0853L14.1762 11.397L11.5833 8.80402Z" fill="#275BC4"/>
<path d="M18.1205 2.00165L12.4032 7.7184L15.2619 10.5771L20.9791 4.86002L18.1205 2.00165Z" fill="#275BC4"/>
</svg>
