<svg width="22" height="23" viewBox="0 0 22 23" fill="none" xmlns="http://www.w3.org/2000/svg">
<path d="M16.1551 14.0846L11.7315 18.4413C11.2114 18.9541 10.5262 19.2701 9.79393 19.3359L3.14914 19.813L0.135929 22.9755C0.0872144 23.0266 0 22.9925 0 22.922V15.7615L1.60679 14.1799C2.343 13.4557 3.34164 13.049 4.8235 13.049H9.62421C10.1876 13.049 10.7321 13.3682 10.9206 13.8917C11.1933 14.6492 10.681 15.375 9.95343 15.4547L6.61964 16.0085C5.84729 16.1371 6.04136 17.2826 6.81529 17.1533L10.0831 16.6088C11.0856 16.4996 11.9271 15.7599 12.1275 14.7631L14.487 12.441C14.9474 11.9872 15.6939 11.9872 16.1535 12.441C16.6155 12.8949 16.6155 13.6307 16.1551 14.0846Z" fill="#767676"/>
<path d="M22 0.0779703V7.23852L20.3932 8.82012C19.657 9.54431 18.6584 9.95094 17.1765 9.95094H12.3758C11.8124 9.95094 11.2672 9.63183 11.0786 9.10824C10.8059 8.35075 11.3182 7.62502 12.0458 7.54524L15.3796 6.99145C16.1519 6.86287 15.9579 5.71734 15.1839 5.84669L12.9643 6.21614V5.30374C12.9643 5.08997 12.7883 4.91647 12.5714 4.91647H9.90472L10.2685 4.55864C10.7887 4.0459 11.4738 3.72989 12.2061 3.66406L18.8509 3.18694L21.8641 0.0245276C21.9128 -0.0265916 22 0.00748787 22 0.0779703Z" fill="#767676"/>
<path d="M9.96834 9.49705C9.72084 8.81004 9.79941 8.06881 10.1836 7.4639C10.5435 6.89772 11.1226 6.51742 11.7857 6.40899V6.31062C11.7857 6.18205 11.6804 6.07826 11.55 6.07826H1.80713C1.6767 6.07826 1.57141 6.18205 1.57141 6.31062V11.6549C1.57141 11.7835 1.6767 11.8873 1.80713 11.8873H11.55C11.6804 11.8873 11.7857 11.7835 11.7857 11.6549V11.0407C10.9481 10.854 10.2512 10.284 9.96834 9.49705ZM6.67855 10.3382C5.91955 10.3382 5.30355 9.73096 5.30355 8.98276C5.30355 8.23456 5.91955 7.62733 6.67855 7.62733C7.43755 7.62733 8.05355 8.23456 8.05355 8.98276C8.05355 9.73096 7.43755 10.3382 6.67855 10.3382Z" fill="#767676"/>
</svg>
