<svg width="21" height="19" viewBox="0 0 21 19" fill="none" xmlns="http://www.w3.org/2000/svg">
<path d="M19.5098 8.60376H15.499L13.7065 10.3962H16.8491C17.0155 10.3973 17.1792 10.4374 17.3273 10.5134L19.5098 8.60376Z" fill="#464646"/>
<path d="M10.3965 16.849H11.8308V17.566H10.3965V16.849Z" fill="#464646"/>
<path d="M17.9243 11.4718V18.0701L19.9677 16.0267C20.0364 15.9605 20.0753 15.8691 20.0752 15.7736V9.06161L17.8264 11.0294C17.8905 11.1681 17.9239 11.319 17.9243 11.4718Z" fill="#464646"/>
<path d="M8.13773 18.8974L8.1442 18.8914C8.20913 18.8244 8.2454 18.7348 8.24528 18.6415V11.4717C8.24528 11.2737 8.0848 11.1132 7.88679 11.1132H0.358496C0.160525 11.1132 0 11.2737 0 11.4717V18.6415C0 18.8395 0.160486 19 0.358496 19H7.88679C7.98069 19.0002 8.07088 18.9634 8.13773 18.8974ZM3.58492 17.566C3.58492 17.962 3.26391 18.283 2.86793 18.283H1.43394C1.03796 18.283 0.716952 17.962 0.716952 17.566V16.849C0.716952 16.453 1.03796 16.132 1.43394 16.132H2.86789C3.26387 16.132 3.58488 16.453 3.58488 16.849L3.58492 17.566ZM7.1698 18.283H6.09431C5.89634 18.283 5.73581 18.1225 5.73581 17.9245C5.73581 17.7265 5.8963 17.566 6.09431 17.566H7.1698C7.36777 17.566 7.52829 17.7265 7.52829 17.9245C7.52829 18.1225 7.36781 18.283 7.1698 18.283ZM7.1698 16.849H6.09431C5.89634 16.849 5.73581 16.6886 5.73581 16.4905C5.73581 16.2926 5.8963 16.1321 6.09431 16.1321H7.1698C7.36777 16.1321 7.52829 16.2925 7.52829 16.4905C7.52829 16.6885 7.36781 16.849 7.1698 16.849Z" fill="#464646"/>
<path d="M1.43384 16.849H2.86817V17.566H1.43384V16.849Z" fill="#464646"/>
<path d="M17.0962 18.8992L17.1001 18.8924L17.107 18.886C17.1705 18.8203 17.2065 18.7328 17.2077 18.6415V11.4717C17.2077 11.2737 17.0472 11.1132 16.8492 11.1132H9.3209C9.12293 11.1132 8.9624 11.2737 8.9624 11.4717V18.6415C8.9624 18.8395 9.12289 19 9.3209 19H16.8492C16.9414 18.9994 17.0299 18.9633 17.0962 18.8992ZM12.5473 17.566C12.5473 17.962 12.2263 18.283 11.8303 18.283H10.3963C10.0004 18.283 9.67935 17.962 9.67935 17.566V16.849C9.67935 16.453 10.0004 16.132 10.3963 16.132H11.8303C12.2263 16.132 12.5473 16.453 12.5473 16.849V17.566ZM16.1322 18.283H15.0567C14.8587 18.283 14.6982 18.1225 14.6982 17.9245C14.6982 17.7265 14.8587 17.566 15.0567 17.566H16.1322C16.3302 17.566 16.4907 17.7265 16.4907 17.9245C16.4907 18.1225 16.3302 18.283 16.1322 18.283ZM16.1322 16.849H15.0567C14.8587 16.849 14.6982 16.6886 14.6982 16.4905C14.6982 16.2926 14.8587 16.1321 15.0567 16.1321H16.1322C16.3302 16.1321 16.4907 16.2925 16.4907 16.4905C16.4907 16.6885 16.3302 16.849 16.1322 16.849Z" fill="#464646"/>
<path d="M13.0254 1.90968L15.2079 0H12.3117L10.0073 1.79244H12.5472C12.7136 1.79354 12.8774 1.83373 13.0254 1.90968Z" fill="#464646"/>
<path d="M8.35529 0.103242C8.3398 0.119122 8.3229 0.133512 8.30475 0.146255L5.96094 1.79244H8.83961L11.144 2.4873e-06H8.60407C8.51068 -0.000350401 8.421 0.0368598 8.35529 0.103242Z" fill="#464646"/>
<path d="M15.6659 7.42078C15.7342 7.35506 15.773 7.26457 15.7735 7.16984V0.457855L13.5247 2.4256C13.5887 2.56429 13.6221 2.71521 13.6225 2.86797V9.46742L15.6659 7.42078Z" fill="#464646"/>
<path d="M3.6944 8.707C3.67891 8.72288 3.66201 8.73727 3.64386 8.75001L1.30005 10.3962H4.00918C3.96671 10.2814 3.9444 10.1601 3.94322 10.0377V8.60376C3.84979 8.60341 3.76011 8.64058 3.6944 8.707Z" fill="#464646"/>
<path d="M6.09473 8.2453H7.52906V8.96229H6.09473V8.2453Z" fill="#464646"/>
<path d="M5.01865 10.3962H12.5469C12.6408 10.3965 12.731 10.3598 12.7979 10.294L12.8051 10.2869C12.8698 10.2201 12.9058 10.1307 12.9054 10.0377V2.86793C12.9054 2.66996 12.745 2.50943 12.5469 2.50943H5.01865C4.82068 2.50943 4.66016 2.66992 4.66016 2.86793V10.0377C4.66016 10.2357 4.82068 10.3962 5.01865 10.3962ZM10.7545 7.52829H11.83C12.028 7.52829 12.1885 7.68878 12.1885 7.88679C12.1885 8.08476 12.028 8.24528 11.83 8.24528H10.7545C10.5565 8.24528 10.396 8.0848 10.396 7.88679C10.396 7.68882 10.5565 7.52829 10.7545 7.52829ZM10.7545 8.96227H11.83C12.028 8.96227 12.1885 9.12276 12.1885 9.32077C12.1885 9.51878 12.028 9.67926 11.83 9.67926H10.7545C10.5565 9.67926 10.396 9.51878 10.396 9.32077C10.396 9.12276 10.5565 8.96227 10.7545 8.96227ZM5.37715 8.24528C5.37715 7.8493 5.69816 7.52829 6.09414 7.52829H7.52808C7.92406 7.52829 8.24507 7.8493 8.24507 8.24528V8.96227C8.24507 9.35825 7.92406 9.67926 7.52808 9.67926H6.09414C5.69816 9.67926 5.37715 9.35825 5.37715 8.96227V8.24528Z" fill="#464646"/>
</svg>
