<svg width="20" height="20" viewBox="0 0 20 20" fill="none" xmlns="http://www.w3.org/2000/svg">
<g clip-path="url(#clip0_77_349)">
<path d="M19.2 16.6L14.6 12.5C15.5 11.3 16 9.7 16 8C16 3.6 12.4 0 8 0C3.6 0 0 3.6 0 8C0 12.4 3.6 16 8 16C9.7 16 11.2 15.5 12.5 14.6L16.6 19.2C17.2 20.1 18.6 20.3 19.4 19.5C20.2 18.7 20.1 17.3 19.2 16.6ZM8 14C4.7 14 2 11.3 2 8C2 4.7 4.7 2 8 2C11.3 2 14 4.7 14 8C14 11.3 11.3 14 8 14Z" fill="#275BC4"/>
<path d="M7 7H9V12H7V7Z" fill="#275BC4"/>
<path d="M8 6C8.55228 6 9 5.55228 9 5C9 4.44772 8.55228 4 8 4C7.44772 4 7 4.44772 7 5C7 5.55228 7.44772 6 8 6Z" fill="#275BC4"/>
</g>
<defs>
<clipPath id="clip0_77_349">
<rect width="20" height="20" fill="white"/>
</clipPath>
</defs>
</svg>
