<svg width="29" height="29" viewBox="0 0 29 29" fill="none" xmlns="http://www.w3.org/2000/svg">
<path d="M24.752 29H7.75977C6.35434 29 5.21094 27.8566 5.21094 26.4512V2.54883C5.21094 1.1434 6.35434 0 7.75977 0H24.752C26.1574 0 27.3008 1.1434 27.3008 2.54883V26.4512C27.3008 27.8566 26.1574 29 24.752 29Z" fill="#F1F1F4"/>
<path d="M24.752 0H16.2559V29H24.752C26.1574 29 27.3008 27.8566 27.3008 26.4512V2.54883C27.3008 1.1434 26.1574 0 24.752 0Z" fill="#E2DFF4"/>
<path d="M25.0289 28.7033L22.5541 25.816C22.0817 25.2649 22.4733 24.4135 23.1992 24.4135H23.5499V19.0879C23.5499 18.6187 23.9303 18.2383 24.3995 18.2383H26.9484C27.4176 18.2383 27.798 18.6187 27.798 19.0879V24.4135H28.1488C28.8746 24.4135 29.2662 25.2649 28.7938 25.816L26.319 28.7033C25.9799 29.0989 25.3679 29.0989 25.0289 28.7033Z" fill="#AED0FF"/>
<path d="M28.1486 24.4135H27.7979V19.0879C27.7979 18.6187 27.4175 18.2383 26.9482 18.2383H25.6738V29C25.9116 29 26.1494 28.9011 26.3189 28.7033L28.7937 25.8161C29.2661 25.2649 28.8745 24.4135 28.1486 24.4135Z" fill="#989DEC"/>
<path d="M18.9746 17.6719H2.54883C1.1434 17.6719 0 16.5285 0 15.123V7.19336C0 5.78794 1.1434 4.64453 2.54883 4.64453H18.9746C20.38 4.64453 21.5234 5.78794 21.5234 7.19336V15.123C21.5234 16.5285 20.38 17.6719 18.9746 17.6719Z" fill="#FF8659"/>
<path d="M18.9746 4.64453H10.7617V17.6719H18.9746C20.38 17.6719 21.5234 16.5285 21.5234 15.123V7.19336C21.5234 5.78794 20.38 4.64453 18.9746 4.64453Z" fill="#FF5C5C"/>
<path d="M9.28293 14.5566C9.13345 14.5566 8.99004 14.4976 8.88389 14.3922C8.7773 14.2864 8.71709 14.1425 8.71652 13.9923C8.71646 13.9717 8.70916 11.9306 8.70916 11.1519C8.70916 10.5061 8.70508 8.32725 8.70508 8.32719C8.7048 8.17681 8.76433 8.03243 8.87058 7.92601C8.97684 7.81958 9.12105 7.75977 9.27143 7.75977H10.8756C12.5825 7.75977 13.7293 9.12548 13.7293 11.1582C13.7293 12.0537 13.473 12.8813 13.0077 13.4887C12.4973 14.1548 11.7603 14.5296 10.9324 14.5441C10.4763 14.5521 9.33345 14.5565 9.28502 14.5567C9.28434 14.5566 9.28366 14.5566 9.28293 14.5566ZM9.83885 8.89258C9.84004 9.58478 9.84191 10.7165 9.84191 11.1519C9.84191 11.6709 9.8452 12.7536 9.84735 13.4211C10.2153 13.419 10.6699 13.4157 10.9126 13.4114C12.0696 13.3912 12.5965 12.2292 12.5965 11.1582C12.5965 10.0629 12.1444 8.89258 10.8756 8.89258H9.83885Z" fill="#F1F1F4"/>
<path d="M17.7244 8.89258C18.0372 8.89258 18.2908 8.639 18.2908 8.32617C18.2908 8.01335 18.0372 7.75977 17.7244 7.75977H15.4287C15.2785 7.75977 15.1344 7.81946 15.0282 7.92567C14.922 8.03187 14.8623 8.1759 14.8623 8.32617V13.9902C14.8623 14.3031 15.1159 14.5566 15.4287 14.5566C15.7415 14.5566 15.9951 14.3031 15.9951 13.9902V11.671H17.542C17.8549 11.671 18.1084 11.4174 18.1084 11.1046C18.1084 10.7917 17.8549 10.5382 17.542 10.5382H15.9951V8.89258H17.7244Z" fill="#E2DFF4"/>
<path d="M5.37612 7.75977H3.79907C3.64852 7.75977 3.5042 7.81969 3.39789 7.92629C3.29208 8.03243 3.23272 8.17624 3.23272 8.32617H3.23267V13.9902C3.23267 14.3031 3.48625 14.5566 3.79907 14.5566C4.1119 14.5566 4.36548 14.3031 4.36548 13.9902V12.0933C4.71574 12.0914 5.14497 12.0894 5.37617 12.0894C6.58709 12.0894 7.5723 11.1183 7.5723 9.92463C7.5723 8.73098 6.58709 7.75977 5.37612 7.75977ZM5.37612 10.9566C5.14599 10.9566 4.72237 10.9585 4.37324 10.9604C4.37137 10.6005 4.36939 10.1597 4.36939 9.92451C4.36939 9.72508 4.3682 9.26748 4.36712 8.89252H5.37612C5.95249 8.89252 6.43943 9.36513 6.43943 9.92451C6.43943 10.4839 5.95249 10.9566 5.37612 10.9566Z" fill="#F1F1F4"/>
<path d="M10.8757 7.75977H10.7618V8.89258H10.8757C12.1445 8.89258 12.5966 10.0629 12.5966 11.1582C12.5966 12.2293 12.0697 13.3912 10.9128 13.4114C10.8688 13.4122 10.8178 13.4129 10.7617 13.4136V14.5466C10.8251 14.5458 10.883 14.545 10.9325 14.5441C11.7604 14.5297 12.4974 14.1548 13.0078 13.4887C13.4732 12.8814 13.7295 12.0537 13.7295 11.1582C13.7295 9.12548 12.5827 7.75977 10.8757 7.75977Z" fill="#E2DFF4"/>
</svg>
