<svg width="12" height="14" viewBox="0 0 12 14" fill="none" xmlns="http://www.w3.org/2000/svg">
<path d="M11.6854 9.81264L10.0072 8.13451C9.40789 7.53518 8.38903 7.77494 8.1493 8.55405C7.9695 9.09347 7.37016 9.39313 6.83077 9.27324C5.6321 8.97358 4.01391 7.41532 3.71424 6.15672C3.53444 5.6173 3.89404 5.01797 4.43344 4.83819C5.21257 4.59846 5.45231 3.5796 4.85297 2.98026L3.17485 1.30214C2.69538 0.882605 1.97618 0.882605 1.55665 1.30214L0.417922 2.44087C-0.720807 3.63953 0.537789 6.81598 3.35465 9.63284C6.1715 12.4497 9.34796 13.7683 10.5466 12.5696L11.6854 11.4308C12.1049 10.9514 12.1049 10.2322 11.6854 9.81264Z" fill="white"/>
</svg>
