<svg width="23" height="22" viewBox="0 0 23 22" fill="none" xmlns="http://www.w3.org/2000/svg">
<path d="M13.8795 3.86219C14.943 4.58562 15.6887 5.80981 15.8244 7.23082C16.2582 7.45069 16.7395 7.57712 17.2499 7.57712C19.113 7.57712 20.6231 5.93874 20.6231 3.91762C20.6231 1.89619 19.113 0.257812 17.2499 0.257812C15.4045 0.258435 13.9076 1.86754 13.8795 3.86219ZM11.6696 11.3556C13.5328 11.3556 15.0429 9.71689 15.0429 7.69577C15.0429 5.67466 13.5325 4.03627 11.6696 4.03627C9.80679 4.03627 8.29585 5.67497 8.29585 7.69608C8.29585 9.7172 9.80679 11.3556 11.6696 11.3556ZM13.1005 11.605H10.2382C7.85668 11.605 5.91921 13.7074 5.91921 16.2913V20.0891L5.9281 20.1485L6.16921 20.2304C8.44195 21.0009 10.4164 21.2578 12.0416 21.2578C15.2159 21.2578 17.0558 20.2759 17.1692 20.2133L17.3945 20.0897H17.4186V16.2913C17.4195 13.7074 15.482 11.605 13.1005 11.605ZM18.6813 7.82688H15.8411C15.8104 9.05979 15.3253 10.17 14.5581 10.9685C16.6749 11.6514 18.2238 13.7812 18.2238 16.2969V17.4672C21.0281 17.3557 22.6441 16.4934 22.7506 16.4355L22.9759 16.3115H23V12.5125C23 9.92897 21.0625 7.82688 18.6813 7.82688ZM5.75072 7.57775C6.41061 7.57775 7.02457 7.36878 7.54468 7.01283C7.71001 5.84282 8.2881 4.82043 9.11389 4.12409C9.11734 4.05558 9.12336 3.98769 9.12336 3.91856C9.12336 1.89713 7.61299 0.258747 5.75072 0.258747C3.8873 0.258747 2.3775 1.89713 2.3775 3.91856C2.3775 5.93905 3.8873 7.57775 5.75072 7.57775ZM8.78007 10.9685C8.01656 10.1741 7.5332 9.06976 7.49789 7.84432C7.39255 7.83591 7.28836 7.82688 7.18101 7.82688H4.31899C1.93748 7.82688 0 9.92897 0 12.5125V16.3109L0.00889804 16.3694L0.250006 16.452C2.07324 17.0695 3.70044 17.3542 5.11379 17.4438V16.2969C5.11436 13.7812 6.66262 11.6521 8.78007 10.9685Z" fill="#979797"/>
</svg>
