<svg width="13" height="13" viewBox="0 0 13 13" fill="none" xmlns="http://www.w3.org/2000/svg">
<path d="M10.557 6.47347L7.18198 9.84847C7.11161 9.91883 7.01618 9.95836 6.91666 9.95836C6.81715 9.95836 6.72172 9.91883 6.65135 9.84847C6.58099 9.7781 6.54146 9.68267 6.54146 9.58316C6.54146 9.48364 6.58099 9.38821 6.65135 9.31784L9.38651 6.58316H2.04166C1.94221 6.58316 1.84683 6.54365 1.7765 6.47332C1.70617 6.40299 1.66666 6.30761 1.66666 6.20816C1.66666 6.1087 1.70617 6.01332 1.7765 5.94299C1.84683 5.87266 1.94221 5.83316 2.04166 5.83316H9.38651L6.65135 3.09847C6.58099 3.0281 6.54146 2.93267 6.54146 2.83316C6.54146 2.73364 6.58099 2.63821 6.65135 2.56784C6.72172 2.49748 6.81715 2.45795 6.91666 2.45795C7.01618 2.45795 7.11161 2.49748 7.18198 2.56784L10.557 5.94284C10.5918 5.97767 10.6195 6.01903 10.6384 6.06455C10.6572 6.11008 10.667 6.15887 10.667 6.20816C10.667 6.25744 10.6572 6.30623 10.6384 6.35176C10.6195 6.39728 10.5918 6.43864 10.557 6.47347Z" fill="#AF52DE"/>
</svg>
