<?xml version="1.0" encoding="UTF-8" standalone="no"?>
<svg
   width="18"
   height="19"
   viewBox="0 0 18 19"
   fill="none"
   version="1.1"
   id="svg1"
   sodipodi:docname="search.svg"
   inkscape:export-filename="C:\Users\GAMERS\Downloads\Kias icons\search.svg"
   inkscape:export-xdpi="96"
   inkscape:export-ydpi="96"
   inkscape:version="1.4 (86a8ad7, 2024-10-11)"
   xmlns:inkscape="http://www.inkscape.org/namespaces/inkscape"
   xmlns:sodipodi="http://sodipodi.sourceforge.net/DTD/sodipodi-0.dtd"
   xmlns="http://www.w3.org/2000/svg"
   xmlns:svg="http://www.w3.org/2000/svg">
  <defs
     id="defs1" />
  <sodipodi:namedview
     id="namedview1"
     pagecolor="#ffffff"
     bordercolor="#000000"
     borderopacity="0.25"
     inkscape:showpageshadow="2"
     inkscape:pageopacity="0.0"
     inkscape:pagecheckerboard="0"
     inkscape:deskcolor="#d1d1d1"
     inkscape:zoom="42.473684"
     inkscape:cx="9.0055762"
     inkscape:cy="9.5"
     inkscape:window-width="1920"
     inkscape:window-height="1009"
     inkscape:window-x="-8"
     inkscape:window-y="-8"
     inkscape:window-maximized="1"
     inkscape:current-layer="svg1" />
  <path
     opacity="1"
     d="m 16.542825,16.160857 -4.011086,-3.949995 c 0.970778,-1.202272 1.738108,-2.8563076 1.738108,-4.4311712 0,-3.6794978 -2.873363,-6.5318594 -6.4050425,-6.5318594 -3.5317045,0 -6.4050771,2.8523616 -6.4050771,6.5318594 0,3.6795072 2.8027406,6.5318762 6.3344451,6.5318762 1.3258453,0 2.9424805,-0.55794 4.0226825,-1.348842 l 3.521793,4.404755 c 0.159031,0.172064 0.372944,0.266969 0.602089,0.266969 0.216976,0 0.422806,-0.08621 0.579029,-0.242873 0.331931,-0.332732 0.342482,-0.88459 0.02306,-1.230719 z M 7.8648045,2.8473796 c 2.6105075,0 4.7341545,2.2125788 4.7341545,4.9323112 0,2.7197582 -2.123647,4.9323202 -4.7341545,4.9323202 -2.6104907,0 -4.7341882,-2.212562 -4.7341882,-4.9323202 0,-2.7197324 2.1236975,-4.9323112 4.7341882,-4.9323112 z"
     fill="#464646"
     id="path1"
     style="stroke-width:0.860335"
     sodipodi:nodetypes="scssssccsccssssss" />
</svg>
