<svg width="14" height="15" viewBox="0 0 14 15" fill="none" xmlns="http://www.w3.org/2000/svg">
<path d="M13.2812 2.49996C13.2812 3.62183 12.3718 4.53129 11.25 4.53129C10.1281 4.53129 9.21875 3.62183 9.21875 2.49996C9.21875 1.37821 10.1281 0.46875 11.25 0.46875C12.3718 0.46875 13.2812 1.37821 13.2812 2.49996Z" fill="#275BC4"/>
<path d="M11.25 5.00004C9.87118 5.00004 8.75 3.87875 8.75 2.49996C8.75 1.12129 9.87118 0 11.25 0C12.6287 0 13.7499 1.12129 13.7499 2.49996C13.7499 3.87875 12.6287 5.00004 11.25 5.00004ZM11.25 0.9375C10.3881 0.9375 9.6875 1.63879 9.6875 2.49996C9.6875 3.36124 10.3881 4.06254 11.25 4.06254C12.1118 4.06254 12.8124 3.36124 12.8124 2.49996C12.8124 1.63879 12.1118 0.9375 11.25 0.9375Z" fill="#275BC4"/>
<path d="M13.2812 12.5001C13.2812 13.6218 12.3718 14.5313 11.25 14.5313C10.1281 14.5313 9.21875 13.6218 9.21875 12.5001C9.21875 11.3782 10.1281 10.4688 11.25 10.4688C12.3718 10.4688 13.2812 11.3782 13.2812 12.5001Z" fill="#275BC4"/>
<path d="M11.25 15C9.87118 15 8.75 13.8787 8.75 12.5001C8.75 11.1213 9.87118 10 11.25 10C12.6287 10 13.7499 11.1213 13.7499 12.5001C13.7499 13.8787 12.6287 15 11.25 15ZM11.25 10.9375C10.3881 10.9375 9.6875 11.6388 9.6875 12.5001C9.6875 13.3612 10.3881 14.0625 11.25 14.0625C12.1118 14.0625 12.8124 13.3612 12.8124 12.5001C12.8124 11.6388 12.1118 10.9375 11.25 10.9375Z" fill="#275BC4"/>
<path d="M4.53129 7.49996C4.53129 8.62183 3.62183 9.53117 2.49996 9.53117C1.37821 9.53117 0.46875 8.62183 0.46875 7.49996C0.46875 6.3781 1.37821 5.46875 2.49996 5.46875C3.62183 5.46875 4.53129 6.3781 4.53129 7.49996Z" fill="#275BC4"/>
<path d="M2.49996 9.99992C1.12129 9.99992 0 8.87875 0 7.49996C0 6.12118 1.12129 5 2.49996 5C3.87875 5 5.00004 6.12118 5.00004 7.49996C5.00004 8.87875 3.87875 9.99992 2.49996 9.99992ZM2.49996 5.9375C1.63811 5.9375 0.9375 6.63868 0.9375 7.49996C0.9375 8.36124 1.63811 9.06242 2.49996 9.06242C3.36193 9.06242 4.06254 8.36124 4.06254 7.49996C4.06254 6.63868 3.36193 5.9375 2.49996 5.9375Z" fill="#275BC4"/>
<path d="M3.97566 7.20005C3.75811 7.20005 3.54685 7.08687 3.43184 6.88442C3.26121 6.58504 3.36626 6.20315 3.66564 6.03184L9.46493 2.72564C9.76431 2.55375 10.1462 2.65881 10.3175 2.95933C10.4881 3.2587 10.3831 3.64059 10.0837 3.81191L4.28431 7.11811C4.1868 7.17373 4.0806 7.20005 3.97566 7.20005Z" fill="#275BC4"/>
<path d="M9.77439 12.3563C9.66934 12.3563 9.56314 12.33 9.46563 12.2744L3.66622 8.96816C3.36685 8.79753 3.26191 8.41564 3.43254 8.11558C3.60248 7.81563 3.98494 7.71 4.28501 7.88189L10.0844 11.1881C10.3838 11.3587 10.4887 11.7406 10.3181 12.0407C10.2025 12.2431 9.99126 12.3563 9.77439 12.3563Z" fill="#275BC4"/>
</svg>
