<svg width="48" height="48" viewBox="0 0 24 24" fill="none" xmlns="http://www.w3.org/2000/svg">
    <g transform="scale(0.55)">
        <path d="M41.4 26.829c1.093-1.093 1.373-2.752.699-4.143-1.356-2.794-3.577-6.44-6.936-9.857-3.563-3.625-7.157-5.721-9.932-7.004-1.366-.632-2.98-.321-4.045.743L9.17 18.582c-1.414 1.414-1.414 3.706 0 5.119l5.047 5.048-7.545 7.545c-1.36 1.36-1.561 3.598-.273 5.027 1.373 1.524 3.723 1.57 5.155.138l7.687-7.687 5.047 5.048c1.414 1.413 3.706 1.413 5.119 0l11.992-11.992z"
            stroke="black" stroke-width="2" stroke-linecap="round" stroke-linejoin="round"/>
        <line x1="13.49" y1="14.265" x2="33.727" y2="34.503"
            stroke="black" stroke-width="2" stroke-linecap="round" stroke-linejoin="round"/>
    </g>
</svg>
