<svg width="21" height="21" viewBox="0 0 21 21" fill="none" xmlns="http://www.w3.org/2000/svg">
<path d="M19.7272 11.2725C19.4781 11.2725 19.2392 11.3714 19.063 11.5476C18.8868 11.7238 18.7878 11.9627 18.7878 12.2119V16.1695C18.7871 16.8636 18.511 17.5291 18.0202 18.02C17.5294 18.5108 16.8639 18.7869 16.1698 18.7876H4.49687C3.80274 18.7869 3.13725 18.5108 2.64643 18.02C2.1556 17.5291 1.87953 16.8636 1.87878 16.1695V12.2119C1.87878 11.9627 1.77981 11.7238 1.60364 11.5476C1.42747 11.3714 1.18853 11.2725 0.939392 11.2725C0.69025 11.2725 0.451312 11.3714 0.275142 11.5476C0.0989713 11.7238 0 11.9627 0 12.2119V16.1695C0.00124337 17.3618 0.475419 18.5048 1.31848 19.3479C2.16153 20.191 3.30461 20.6651 4.49687 20.6664H16.1698C17.362 20.6651 18.5051 20.191 19.3482 19.3479C20.1912 18.5048 20.6654 17.3618 20.6666 16.1695V12.2119C20.6666 11.9627 20.5677 11.7238 20.3915 11.5476C20.2153 11.3714 19.9764 11.2725 19.7272 11.2725Z" fill="#929292"/>
<path d="M5.36104 7.23969L9.39385 3.20688V15.0301C9.39385 15.2792 9.49282 15.5182 9.66899 15.6943C9.84516 15.8705 10.0841 15.9695 10.3332 15.9695C10.5824 15.9695 10.8213 15.8705 10.9975 15.6943C11.1737 15.5182 11.2726 15.2792 11.2726 15.0301V3.20688L15.3054 7.23969C15.4826 7.41081 15.7199 7.5055 15.9662 7.50336C16.2125 7.50122 16.4481 7.40242 16.6223 7.22825C16.7965 7.05408 16.8953 6.81847 16.8974 6.57216C16.8996 6.32586 16.8049 6.08857 16.6337 5.91139L10.9974 0.275041C10.8212 0.0989325 10.5823 0 10.3332 0C10.0842 0 9.84526 0.0989325 9.66909 0.275041L4.03274 5.91139C3.86162 6.08857 3.76694 6.32586 3.76908 6.57216C3.77122 6.81847 3.87001 7.05408 4.04418 7.22825C4.21836 7.40242 4.45397 7.50122 4.70027 7.50336C4.94658 7.5055 5.18387 7.41081 5.36104 7.23969Z" fill="#929292"/>
</svg>
